Sweynheim&Pannartz-ProtoRoman115R.ufo
<glyph name="ampersand" format="1">
  <advance width="632"/>
  <unicode hex="0026"/>
  <outline>
    <contour>
      <point x="593" y="455" type="curve"/>
      <point x="590" y="465" type="line"/>
      <point x="507" y="450" type="line"/>
      <point x="506" y="391"/>
      <point x="417" y="252"/>
      <point x="311" y="141" type="curve"/>
      <point x="251" y="78"/>
      <point x="199" y="45"/>
      <point x="143" y="45" type="curve"/>
      <point x="106" y="45"/>
      <point x="82" y="66"/>
      <point x="82" y="101" type="curve"/>
      <point x="82" y="152"/>
      <point x="122" y="197"/>
      <point x="197" y="237" type="curve"/>
      <point x="283" y="283"/>
      <point x="307" y="327"/>
      <point x="307" y="369" type="curve"/>
      <point x="307" y="444"/>
      <point x="240" y="474"/>
      <point x="182" y="474" type="curve"/>
      <point x="108" y="474"/>
      <point x="53" y="416"/>
      <point x="53" y="346" type="curve"/>
      <point x="53" y="300"/>
      <point x="79" y="260"/>
      <point x="125" y="236" type="curve"/>
      <point x="252" y="224"/>
      <point x="340" y="0"/>
      <point x="375" y="0" type="curve"/>
      <point x="423" y="0"/>
      <point x="524" y="52"/>
      <point x="593" y="116" type="curve"/>
      <point x="576" y="136" type="line"/>
      <point x="527" y="97"/>
      <point x="464" y="75"/>
      <point x="446" y="75" type="curve"/>
      <point x="379" y="75"/>
      <point x="334" y="198"/>
      <point x="211" y="293" type="curve"/>
      <point x="152" y="298"/>
      <point x="106" y="332"/>
      <point x="106" y="366" type="curve"/>
      <point x="106" y="398"/>
      <point x="126" y="428"/>
      <point x="169" y="428" type="curve"/>
      <point x="208" y="428"/>
      <point x="231" y="401"/>
      <point x="231" y="368" type="curve"/>
      <point x="231" y="331"/>
      <point x="200" y="289"/>
      <point x="138" y="277" type="curve"/>
      <point x="55" y="228"/>
      <point x="14" y="172"/>
      <point x="14" y="105" type="curve"/>
      <point x="14" y="25"/>
      <point x="62" y="-10"/>
      <point x="130" y="-10" type="curve"/>
      <point x="205" y="-10"/>
      <point x="269" y="44"/>
      <point x="338" y="118" type="curve"/>
      <point x="455" y="244"/>
      <point x="549" y="405"/>
    </contour>
  </outline>
</glyph>
<glyph name="hyphen" format="1">
  <advance width="323"/>
  <unicode hex="002D"/>
  <outline>
    <contour>
      <point x="361" y="696" type="curve"/>
      <point x="413" y="624" type="line"/>
      <point x="77" y="-14" type="line"/>
      <point x="60" y="31" type="line"/>
      <point x="162" y="242"/>
      <point x="273" y="502"/>
    </contour>
  </outline>
</glyph>
<glyph name="period" format="1">
  <advance width="177"/>
  <unicode hex="002E"/>
  <outline>
    <contour>
      <point x="20" y="62" type="curve"/>
      <point x="20" y="58" type="line"/>
      <point x="40" y="33"/>
      <point x="62" y="10"/>
      <point x="86" y="-10" type="curve"/>
      <point x="90" y="-10" type="line"/>
      <point x="115" y="11"/>
      <point x="138" y="34"/>
      <point x="157" y="57" type="curve"/>
      <point x="157" y="61" type="line"/>
      <point x="135" y="84"/>
      <point x="112" y="107"/>
      <point x="90" y="128" type="curve"/>
      <point x="86" y="128" type="line"/>
      <point x="62" y="107"/>
      <point x="39" y="85"/>
    </contour>
  </outline>
</glyph>
<glyph name="question" format="1">
  <advance width="275"/>
  <unicode hex="003F"/>
  <outline>
    <contour>
      <point x="145" y="354" type="curve"/>
      <point x="145" y="334"/>
      <point x="154" y="313"/>
      <point x="161" y="296" type="curve"/>
      <point x="81" y="249" type="line"/>
      <point x="3" y="407"/>
      <point x="223" y="432"/>
      <point x="223" y="536" type="curve"/>
      <point x="223" y="584"/>
      <point x="188" y="616"/>
      <point x="160" y="623" type="curve"/>
      <point x="145" y="710" type="line"/>
      <point x="234" y="695"/>
      <point x="279" y="627"/>
      <point x="279" y="571" type="curve"/>
      <point x="279" y="481"/>
      <point x="145" y="430"/>
    </contour>
    <component base="period" xOffset="10"/>
  </outline>
</glyph>
<glyph name="A" format="1">
  <advance width="707"/>
  <unicode hex="0041"/>
  <outline>
    <contour>
      <point x="299" y="619" type="line"/>
      <point x="271" y="618" type="line"/>
      <point x="482" y="105" type="line" smooth="yes"/>
      <point x="505" y="50"/>
      <point x="505" y="44"/>
      <point x="451" y="25" type="curve"/>
      <point x="451" y="-5" type="line"/>
      <point x="524" y="-1"/>
      <point x="622" y="0"/>
      <point x="676" y="-5" type="curve"/>
      <point x="676" y="30" type="line"/>
      <point x="621" y="42"/>
      <point x="620" y="43"/>
      <point x="589" y="111" type="curve"/>
      <point x="507" y="293"/>
      <point x="423" y="482"/>
      <point x="347" y="664" type="curve"/>
      <point x="368" y="676" type="line"/>
      <point x="350" y="709" type="line"/>
      <point x="287" y="684"/>
      <point x="217" y="660"/>
      <point x="154" y="637" type="curve"/>
      <point x="164" y="602" type="line"/>
      <point x="257" y="629" type="line"/>
      <point x="135" y="115" type="line" smooth="yes"/>
      <point x="115" y="30"/>
      <point x="115" y="32"/>
      <point x="61" y="24" type="curve"/>
      <point x="61" y="-7" type="line"/>
      <point x="80" y="-5"/>
      <point x="174" y="-1"/>
      <point x="227" y="-3" type="curve"/>
      <point x="227" y="27" type="line"/>
      <point x="181" y="33"/>
      <point x="179" y="31"/>
      <point x="188" y="77" type="curve"/>
    </contour>
    <contour>
      <point x="474" y="288" type="line"/>
      <point x="188" y="288" type="line"/>
      <point x="188" y="240" type="line"/>
      <point x="474" y="240" type="line"/>
    </contour>
  </outline>
</glyph>
<glyph name="D" format="1">
  <advance width="847"/>
  <unicode hex="0044"/>
  <outline>
    <contour>
      <point x="40" y="703" type="curve"/>
      <point x="40" y="668" type="line"/>
      <point x="72" y="667"/>
      <point x="105" y="664"/>
      <point x="137" y="657" type="curve"/>
      <point x="141" y="500"/>
      <point x="142" y="196"/>
      <point x="132" y="41" type="curve"/>
      <point x="72" y="25" type="line"/>
      <point x="82" y="-12" type="line"/>
      <point x="162" y="13"/>
      <point x="239" y="-10"/>
      <point x="390" y="-10" type="curve"/>
      <point x="670" y="-10"/>
      <point x="827" y="169"/>
      <point x="827" y="359" type="curve"/>
      <point x="827" y="599"/>
      <point x="654" y="705"/>
      <point x="406" y="705" type="curve"/>
      <point x="275" y="705"/>
      <point x="206" y="700"/>
    </contour>
    <contour>
      <point x="240" y="555" type="curve"/>
      <point x="243" y="638"/>
      <point x="273" y="665"/>
      <point x="374" y="665" type="curve"/>
      <point x="575" y="665"/>
      <point x="716" y="555"/>
      <point x="716" y="345" type="curve"/>
      <point x="716" y="167"/>
      <point x="597" y="30"/>
      <point x="400" y="30" type="curve"/>
      <point x="326" y="30"/>
      <point x="295" y="36"/>
      <point x="248" y="49" type="curve"/>
      <point x="241" y="246"/>
      <point x="236" y="425"/>
    </contour>
  </outline>
</glyph>
<glyph name="F" format="1">
  <advance width="808"/>
  <unicode hex="0046"/>
  <outline>
    <contour>
      <point x="43" y="707" type="curve"/>
      <point x="43" y="673" type="line"/>
      <point x="137" y="663"/>
      <point x="142" y="667"/>
      <point x="145" y="624" type="curve"/>
      <point x="154" y="488"/>
      <point x="154" y="239"/>
      <point x="148" y="96" type="curve"/>
      <point x="146" y="48"/>
      <point x="140" y="42"/>
      <point x="40" y="28" type="curve"/>
      <point x="40" y="-7" type="line"/>
      <point x="155" y="-1"/>
      <point x="293" y="-1"/>
      <point x="378" y="-7" type="curve"/>
      <point x="378" y="30" type="line"/>
      <point x="263" y="44"/>
      <point x="255" y="47"/>
      <point x="254" y="91" type="curve"/>
      <point x="251" y="204"/>
      <point x="249" y="557"/>
      <point x="258" y="652" type="curve"/>
      <point x="561" y="650" type="line" smooth="yes"/>
      <point x="681" y="649"/>
      <point x="700" y="639"/>
      <point x="704" y="569" type="curve"/>
      <point x="731" y="566" type="line"/>
      <point x="783" y="710" type="line"/>
      <point x="671" y="697"/>
      <point x="235" y="699"/>
    </contour>
    <contour>
      <point x="237" y="378" type="line"/>
      <point x="237" y="330" type="line"/>
      <point x="532" y="328" type="line" smooth="yes"/>
      <point x="625" y="327"/>
      <point x="625" y="331"/>
      <point x="625" y="257" type="curve"/>
      <point x="651" y="252" type="line"/>
      <point x="711" y="452" type="line"/>
      <point x="681" y="458" type="line"/>
      <point x="638" y="382"/>
      <point x="634" y="380"/>
      <point x="575" y="380" type="curve"/>
    </contour>
  </outline>
</glyph>
<glyph name="I" format="1">
  <advance width="417"/>
  <unicode hex="0049"/>
  <outline>
    <contour>
      <point x="40" y="703" type="curve"/>
      <point x="40" y="668" type="line"/>
      <point x="125" y="659"/>
      <point x="131" y="659"/>
      <point x="134" y="550" type="curve"/>
      <point x="136" y="450"/>
      <point x="138" y="257"/>
      <point x="130" y="47" type="curve"/>
      <point x="130" y="34"/>
      <point x="126" y="33"/>
      <point x="47" y="26" type="curve"/>
      <point x="47" y="-9" type="line"/>
      <point x="116" y="1"/>
      <point x="317" y="2"/>
      <point x="382" y="-3" type="curve"/>
      <point x="382" y="35" type="line"/>
      <point x="247" y="44"/>
      <point x="244" y="40"/>
      <point x="239" y="165" type="curve"/>
      <point x="236" y="255"/>
      <point x="234" y="450"/>
      <point x="244" y="650" type="curve"/>
      <point x="244" y="658"/>
      <point x="245" y="661"/>
      <point x="377" y="666" type="curve"/>
      <point x="377" y="703" type="line"/>
      <point x="271" y="697"/>
      <point x="144" y="697"/>
    </contour>
  </outline>
</glyph>
<glyph name="J" format="1">
  <advance width="347"/>
  <unicode hex="004A"/>
  <outline>
    <contour>
      <point x="30" y="703" type="curve"/>
      <point x="30" y="668" type="line"/>
      <point x="105" y="659"/>
      <point x="121" y="659"/>
      <point x="122" y="620" type="curve"/>
      <point x="126" y="450"/>
      <point x="128" y="273"/>
      <point x="124" y="153" type="curve"/>
      <point x="116" y="-83"/>
      <point x="107" y="-128"/>
      <point x="-17" y="-239" type="curve"/>
      <point x="8" y="-270" type="line"/>
      <point x="168" y="-156"/>
      <point x="229" y="-32"/>
      <point x="227" y="111" type="curve"/>
      <point x="225" y="241"/>
      <point x="226" y="450"/>
      <point x="232" y="620" type="curve"/>
      <point x="233" y="658"/>
      <point x="255" y="659"/>
      <point x="327" y="668" type="curve"/>
      <point x="327" y="703" type="line"/>
      <point x="261" y="697"/>
      <point x="134" y="697"/>
    </contour>
  </outline>
</glyph>
<glyph name="K" format="1">
  <advance width="917"/>
  <unicode hex="004B"/>
  <outline>
    <contour>
      <point x="346" y="337" type="curve"/>
      <point x="257" y="280" type="line"/>
      <point x="460" y="85"/>
      <point x="563" y="-10"/>
      <point x="690" y="-10" type="curve"/>
      <point x="812" y="-10"/>
      <point x="870" y="-6"/>
      <point x="917" y="4" type="curve"/>
      <point x="913" y="38" type="line"/>
      <point x="698" y="50"/>
      <point x="646" y="72"/>
      <point x="576" y="127" type="curve"/>
      <point x="446" y="228"/>
      <point x="416" y="261"/>
    </contour>
    <contour>
      <point x="601" y="614" type="curve"/>
      <point x="209" y="285" type="line"/>
      <point x="209" y="226" type="line"/>
      <point x="630" y="564" type="line" smooth="yes"/>
      <point x="747" y="658"/>
      <point x="758" y="655"/>
      <point x="865" y="667" type="curve"/>
      <point x="865" y="702" type="line"/>
      <point x="753" y="697"/>
      <point x="663" y="697"/>
      <point x="544" y="702" type="curve"/>
      <point x="544" y="667" type="line"/>
      <point x="631" y="654"/>
      <point x="639" y="646"/>
    </contour>
    <contour>
      <point x="339" y="668" type="curve"/>
      <point x="339" y="703" type="line"/>
      <point x="235" y="697"/>
      <point x="111" y="697"/>
      <point x="45" y="703" type="curve"/>
      <point x="45" y="666" type="line"/>
      <point x="117" y="661"/>
      <point x="139" y="658"/>
      <point x="140" y="620" type="curve"/>
      <point x="144" y="450"/>
      <point x="144" y="255"/>
      <point x="140" y="85" type="curve"/>
      <point x="139" y="43"/>
      <point x="125" y="44"/>
      <point x="40" y="35" type="curve"/>
      <point x="40" y="-3" type="line"/>
      <point x="97" y="0"/>
      <point x="263" y="2"/>
      <point x="352" y="-3" type="curve"/>
      <point x="352" y="32" type="line"/>
      <point x="253" y="39"/>
      <point x="249" y="44"/>
      <point x="247" y="87" type="curve"/>
      <point x="239" y="257"/>
      <point x="243" y="450"/>
      <point x="247" y="620" type="curve"/>
      <point x="248" y="659"/>
      <point x="264" y="659"/>
    </contour>
  </outline>
</glyph>
<glyph name="M" format="1">
  <advance width="1113"/>
  <unicode hex="004D"/>
  <outline>
    <contour>
      <point x="40" y="703" type="curve"/>
      <point x="40" y="669" type="line"/>
      <point x="111" y="659"/>
      <point x="135" y="654"/>
      <point x="135" y="620" type="curve"/>
      <point x="135" y="469"/>
      <point x="132" y="170"/>
      <point x="122" y="91" type="curve"/>
      <point x="116" y="42"/>
      <point x="104" y="39"/>
      <point x="47" y="30" type="curve"/>
      <point x="41" y="-5" type="line"/>
      <point x="137" y="3"/>
      <point x="280" y="3"/>
      <point x="384" y="-5" type="curve"/>
      <point x="384" y="30" type="line"/>
      <point x="250" y="37"/>
      <point x="200" y="44"/>
      <point x="196" y="91" type="curve"/>
      <point x="190" y="163"/>
      <point x="189" y="386"/>
      <point x="189" y="537" type="curve"/>
      <point x="277" y="417"/>
      <point x="405" y="238"/>
      <point x="486" y="103" type="curve"/>
      <point x="512" y="60"/>
      <point x="523" y="21"/>
      <point x="536" y="-10" type="curve"/>
      <point x="558" y="-10" type="line"/>
      <point x="583" y="80"/>
      <point x="589" y="111"/>
      <point x="674" y="254" type="curve"/>
      <point x="874" y="590" type="line"/>
      <point x="879" y="489"/>
      <point x="878" y="142"/>
      <point x="872" y="91" type="curve"/>
      <point x="867" y="44"/>
      <point x="862" y="44"/>
      <point x="704" y="33" type="curve"/>
      <point x="704" y="-4" type="line"/>
      <point x="806" y="4"/>
      <point x="960" y="3"/>
      <point x="1073" y="-5" type="curve"/>
      <point x="1073" y="30" type="line"/>
      <point x="1008" y="43"/>
      <point x="993" y="45"/>
      <point x="988" y="91" type="curve"/>
      <point x="979" y="170"/>
      <point x="980" y="519"/>
      <point x="985" y="620" type="curve"/>
      <point x="987" y="657"/>
      <point x="1005" y="661"/>
      <point x="1070" y="670" type="curve"/>
      <point x="1070" y="703" type="line"/>
      <point x="978" y="697"/>
      <point x="828" y="697"/>
      <point x="707" y="703" type="curve"/>
      <point x="707" y="669" type="line"/>
      <point x="789" y="664"/>
      <point x="829" y="661"/>
      <point x="850" y="651" type="curve"/>
      <point x="538" y="127" type="line"/>
      <point x="577" y="149" type="line"/>
      <point x="232" y="651" type="line"/>
      <point x="260" y="656"/>
      <point x="306" y="661"/>
      <point x="381" y="667" type="curve"/>
      <point x="381" y="703" type="line"/>
      <point x="264" y="698"/>
      <point x="125" y="698"/>
    </contour>
  </outline>
</glyph>
<glyph name="N" format="1">
  <advance width="1005"/>
  <unicode hex="004E"/>
  <outline>
    <contour>
      <point x="214" y="115" type="curve"/>
      <point x="214" y="605" type="line"/>
      <point x="159" y="653" type="line"/>
      <point x="159" y="120" type="line" smooth="yes"/>
      <point x="159" y="35"/>
      <point x="150" y="36"/>
      <point x="66" y="30" type="curve"/>
      <point x="60" y="-5" type="line"/>
      <point x="178" y="0"/>
      <point x="300" y="1"/>
      <point x="410" y="-5" type="curve"/>
      <point x="420" y="39" type="line"/>
      <point x="214" y="39"/>
      <point x="214" y="39"/>
    </contour>
    <contour>
      <point x="40" y="697" type="curve"/>
      <point x="44" y="660" type="line"/>
      <point x="113" y="660"/>
      <point x="140" y="657"/>
      <point x="206" y="593" type="curve"/>
      <point x="277" y="524"/>
      <point x="546" y="283"/>
      <point x="689" y="148" type="curve"/>
      <point x="749" y="92"/>
      <point x="793" y="49"/>
      <point x="817" y="-5" type="curve"/>
      <point x="863" y="-5" type="line"/>
      <point x="846" y="148"/>
      <point x="846" y="302"/>
      <point x="853" y="575" type="curve"/>
      <point x="855" y="659"/>
      <point x="850" y="658"/>
      <point x="965" y="670" type="curve"/>
      <point x="965" y="703" type="line"/>
      <point x="871" y="699"/>
      <point x="736" y="698"/>
      <point x="606" y="703" type="curve"/>
      <point x="606" y="668" type="line"/>
      <point x="786" y="663"/>
      <point x="793" y="664"/>
      <point x="793" y="597" type="curve"/>
      <point x="793" y="192" type="line"/>
      <point x="617" y="337"/>
      <point x="440" y="529"/>
      <point x="252" y="702" type="curve"/>
      <point x="206" y="702"/>
      <point x="120" y="700"/>
    </contour>
  </outline>
</glyph>
<glyph name="P" format="1">
  <advance width="684"/>
  <unicode hex="0050"/>
  <outline>
    <contour>
      <point x="360" y="272" type="curve"/>
      <point x="362" y="246" type="line"/>
      <point x="497" y="263"/>
      <point x="664" y="333"/>
      <point x="664" y="493" type="curve"/>
      <point x="664" y="616"/>
      <point x="560" y="703"/>
      <point x="415" y="703" type="curve"/>
      <point x="313" y="703"/>
      <point x="175" y="696"/>
      <point x="40" y="703" type="curve"/>
      <point x="40" y="668" type="line"/>
      <point x="172" y="662"/>
      <point x="176" y="663"/>
      <point x="176" y="595" type="curve"/>
      <point x="174" y="98" type="line" smooth="yes"/>
      <point x="174" y="40"/>
      <point x="161" y="38"/>
      <point x="54" y="35" type="curve"/>
      <point x="54" y="-3" type="line"/>
      <point x="170" y="1"/>
      <point x="377" y="1"/>
      <point x="501" y="-3" type="curve"/>
      <point x="501" y="27" type="line"/>
      <point x="291" y="41"/>
      <point x="284" y="42"/>
      <point x="281" y="91" type="curve"/>
      <point x="275" y="196"/>
      <point x="274" y="534"/>
      <point x="281" y="653" type="curve"/>
      <point x="434" y="690"/>
      <point x="554" y="627"/>
      <point x="554" y="483" type="curve"/>
      <point x="554" y="351"/>
      <point x="468" y="296"/>
    </contour>
  </outline>
</glyph>
<glyph name="S" format="1">
  <advance width="578"/>
  <unicode hex="0053"/>
  <outline>
    <contour>
      <point x="30" y="530" type="curve"/>
      <point x="30" y="660"/>
      <point x="184" y="700"/>
      <point x="324" y="700" type="curve"/>
      <point x="325" y="700"/>
      <point x="535" y="700"/>
      <point x="534" y="700" type="curve"/>
      <point x="502" y="515" type="line"/>
      <point x="472" y="518" type="line"/>
      <point x="466" y="596" type="line" smooth="yes"/>
      <point x="463" y="633"/>
      <point x="403" y="663"/>
      <point x="296" y="663" type="curve"/>
      <point x="194" y="663"/>
      <point x="140" y="612"/>
      <point x="140" y="553" type="curve"/>
      <point x="140" y="503"/>
      <point x="180" y="465"/>
      <point x="311" y="403" type="curve"/>
      <point x="453" y="336"/>
      <point x="548" y="289"/>
      <point x="548" y="176" type="curve"/>
      <point x="548" y="4"/>
      <point x="311" y="0"/>
      <point x="40" y="-5" type="curve"/>
      <point x="61" y="179" type="line"/>
      <point x="85" y="179" type="line"/>
      <point x="92" y="68"/>
      <point x="94" y="36"/>
      <point x="178" y="36" type="curve"/>
      <point x="300" y="36"/>
      <point x="438" y="57"/>
      <point x="438" y="149" type="curve"/>
      <point x="438" y="226"/>
      <point x="375" y="263"/>
      <point x="276" y="314" type="curve"/>
      <point x="176" y="365"/>
      <point x="30" y="420"/>
    </contour>
  </outline>
</glyph>
<glyph name="T" format="1">
  <advance width="871"/>
  <unicode hex="0054"/>
  <outline>
    <contour>
      <point x="129" y="737" type="line"/>
      <point x="20" y="571" type="line"/>
      <point x="49" y="554" type="line"/>
      <point x="91" y="605" type="line" smooth="yes"/>
      <point x="129" y="651"/>
      <point x="134" y="646"/>
      <point x="193" y="647" type="curve"/>
      <point x="376" y="650"/>
      <point x="612" y="651"/>
      <point x="815" y="646" type="curve"/>
      <point x="824" y="594" type="line"/>
      <point x="851" y="594" type="line"/>
      <point x="851" y="740" type="line"/>
      <point x="811" y="740" type="line"/>
      <point x="811" y="700"/>
      <point x="806" y="700"/>
      <point x="768" y="700" type="curve"/>
      <point x="191" y="701" type="line" smooth="yes"/>
      <point x="159" y="701"/>
      <point x="146" y="700"/>
      <point x="159" y="732" type="curve"/>
    </contour>
    <contour>
      <point x="511" y="654" type="curve"/>
      <point x="396" y="654" type="line"/>
      <point x="403" y="484"/>
      <point x="403" y="261"/>
      <point x="396" y="91" type="curve"/>
      <point x="394" y="45"/>
      <point x="394" y="45"/>
      <point x="271" y="28" type="curve"/>
      <point x="271" y="-5" type="line"/>
      <point x="361" y="2"/>
      <point x="564" y="3"/>
      <point x="641" y="-5" type="curve"/>
      <point x="641" y="30" type="line"/>
      <point x="513" y="44"/>
      <point x="513" y="44"/>
      <point x="511" y="89" type="curve"/>
      <point x="503" y="259"/>
      <point x="504" y="485"/>
    </contour>
  </outline>
</glyph>
<glyph name="U" format="1">
  <advance width="894"/>
  <unicode hex="0055"/>
  <outline>
    <contour>
      <point x="742" y="260" type="curve"/>
      <point x="742" y="600" type="line"/>
      <point x="682" y="600" type="line"/>
      <point x="682" y="251" type="line" smooth="yes"/>
      <point x="682" y="90"/>
      <point x="572" y="41"/>
      <point x="469" y="41" type="curve"/>
      <point x="343" y="41"/>
      <point x="252" y="85"/>
      <point x="252" y="280" type="curve"/>
      <point x="252" y="600" type="line"/>
      <point x="142" y="600" type="line"/>
      <point x="142" y="260" type="line" smooth="yes"/>
      <point x="142" y="75"/>
      <point x="254" y="-10"/>
      <point x="445" y="-10" type="curve"/>
      <point x="619" y="-10"/>
      <point x="742" y="75"/>
    </contour>
    <contour>
      <point x="142" y="600" type="curve"/>
      <point x="252" y="600" type="line"/>
      <point x="254" y="658"/>
      <point x="275" y="658"/>
      <point x="377" y="666" type="curve"/>
      <point x="377" y="703" type="line"/>
      <point x="281" y="697"/>
      <point x="154" y="697"/>
      <point x="50" y="703" type="curve"/>
      <point x="50" y="668" type="line"/>
      <point x="125" y="659"/>
      <point x="141" y="659"/>
    </contour>
    <contour>
      <point x="682" y="600" type="curve"/>
      <point x="742" y="600" type="line"/>
      <point x="743" y="659"/>
      <point x="764" y="658"/>
      <point x="837" y="668" type="curve"/>
      <point x="837" y="703" type="line"/>
      <point x="753" y="697"/>
      <point x="626" y="697"/>
      <point x="550" y="703" type="curve"/>
      <point x="550" y="666" type="line"/>
      <point x="639" y="662"/>
      <point x="680" y="658"/>
    </contour>
  </outline>
</glyph>
<glyph name="W" format="1">
  <advance width="1177"/>
  <unicode hex="0057"/>
  <outline>
    <contour>
      <point x="498" y="127" type="curve"/>
      <point x="642" y="452" type="line"/>
      <point x="602" y="535" type="line"/>
      <point x="431" y="81" type="line"/>
      <point x="479" y="132" type="line"/>
      <point x="274" y="619" type="line" smooth="yes"/>
      <point x="258" y="656"/>
      <point x="258" y="666"/>
      <point x="350" y="668" type="curve"/>
      <point x="350" y="703" type="line"/>
      <point x="244" y="699"/>
      <point x="149" y="697"/>
      <point x="50" y="701" type="curve"/>
      <point x="50" y="666" type="line"/>
      <point x="97" y="660"/>
      <point x="126" y="655"/>
      <point x="157" y="591" type="curve"/>
      <point x="291" y="316"/>
      <point x="391" y="88"/>
      <point x="414" y="-10" type="curve"/>
      <point x="450" y="-10" type="line"/>
      <point x="466" y="41"/>
      <point x="482" y="90"/>
    </contour>
    <contour>
      <point x="926" y="703" type="curve"/>
      <point x="926" y="668" type="line"/>
      <point x="1043" y="661"/>
      <point x="1027" y="654"/>
      <point x="1007" y="600" type="curve"/>
      <point x="819" y="102" type="line"/>
      <point x="863" y="126" type="line"/>
      <point x="661" y="619" type="line" smooth="yes"/>
      <point x="646" y="656"/>
      <point x="644" y="666"/>
      <point x="744" y="668" type="curve"/>
      <point x="744" y="703" type="line"/>
      <point x="638" y="699"/>
      <point x="553" y="697"/>
      <point x="454" y="701" type="curve"/>
      <point x="454" y="666" type="line"/>
      <point x="501" y="660"/>
      <point x="526" y="656"/>
      <point x="555" y="591" type="curve"/>
      <point x="669" y="336"/>
      <point x="775" y="88"/>
      <point x="798" y="-10" type="curve"/>
      <point x="834" y="-10" type="line"/>
      <point x="850" y="41"/>
      <point x="866" y="90"/>
      <point x="882" y="127" type="curve"/>
      <point x="1094" y="628" type="line" smooth="yes"/>
      <point x="1105" y="653"/>
      <point x="1125" y="662"/>
      <point x="1161" y="668" type="curve"/>
      <point x="1161" y="703" type="line"/>
      <point x="1129" y="699"/>
      <point x="1035" y="697"/>
    </contour>
  </outline>
</glyph>
<glyph name="X" format="1">
  <advance width="867"/>
  <unicode hex="0058"/>
  <outline>
    <contour>
      <point x="279" y="100" type="curve"/>
      <point x="429" y="317" type="line"/>
      <point x="396" y="354" type="line"/>
      <point x="252" y="156" type="line" smooth="yes"/>
      <point x="166" y="37"/>
      <point x="140" y="40"/>
      <point x="6" y="32" type="curve"/>
      <point x="6" y="-3" type="line"/>
      <point x="119" y="1"/>
      <point x="224" y="4"/>
      <point x="350" y="-3" type="curve"/>
      <point x="350" y="32" type="line"/>
      <point x="262" y="34"/>
      <point x="244" y="49"/>
    </contour>
    <contour>
      <point x="557" y="583" type="curve"/>
      <point x="438" y="414" type="line"/>
      <point x="467" y="380" type="line"/>
      <point x="640" y="606" type="line" smooth="yes"/>
      <point x="689" y="670"/>
      <point x="723" y="670"/>
      <point x="832" y="663" type="curve"/>
      <point x="832" y="703" type="line"/>
      <point x="728" y="699"/>
      <point x="635" y="698"/>
      <point x="520" y="703" type="curve"/>
      <point x="520" y="668" type="line"/>
      <point x="600" y="662"/>
      <point x="603" y="648"/>
    </contour>
    <contour>
      <point x="622" y="195" type="curve"/>
      <point x="320" y="617" type="line" smooth="yes"/>
      <point x="294" y="653"/>
      <point x="337" y="661"/>
      <point x="408" y="668" type="curve"/>
      <point x="408" y="703" type="line"/>
      <point x="266" y="696"/>
      <point x="104" y="698"/>
      <point x="5" y="703" type="curve"/>
      <point x="5" y="668" type="line"/>
      <point x="143" y="655"/>
      <point x="182" y="641"/>
      <point x="250" y="544" type="curve"/>
      <point x="570" y="88" type="line" smooth="yes"/>
      <point x="607" y="35"/>
      <point x="564" y="36"/>
      <point x="492" y="32" type="curve"/>
      <point x="492" y="-3" type="line"/>
      <point x="601" y="0"/>
      <point x="758" y="4"/>
      <point x="862" y="-3" type="curve"/>
      <point x="862" y="32" type="line"/>
      <point x="740" y="42"/>
      <point x="703" y="82"/>
    </contour>
  </outline>
</glyph>
<glyph name="Y" format="1">
  <advance width="889"/>
  <unicode hex="0059"/>
  <outline>
    <contour>
      <point x="867" y="630" type="curve"/>
      <point x="884" y="701" type="line"/>
      <point x="879" y="710" type="line"/>
      <point x="732" y="709"/>
      <point x="563" y="510"/>
      <point x="523" y="329" type="curve"/>
      <point x="538" y="320" type="line"/>
      <point x="519" y="565"/>
      <point x="294" y="754"/>
      <point x="76" y="695" type="curve"/>
      <point x="5" y="611" type="line"/>
      <point x="30" y="587" type="line"/>
      <point x="50" y="600"/>
      <point x="69" y="613"/>
      <point x="105" y="613" type="curve"/>
      <point x="323" y="613"/>
      <point x="461" y="458"/>
      <point x="461" y="203" type="curve"/>
      <point x="461" y="73"/>
      <point x="447" y="55"/>
      <point x="327" y="30" type="curve"/>
      <point x="327" y="-5" type="line"/>
      <point x="414" y="3"/>
      <point x="576" y="2"/>
      <point x="682" y="-5" type="curve"/>
      <point x="682" y="30" type="line"/>
      <point x="558" y="45"/>
      <point x="548" y="52"/>
      <point x="547" y="203" type="curve"/>
      <point x="546" y="407"/>
      <point x="682" y="589"/>
    </contour>
  </outline>
</glyph>
<glyph name="a" format="1">
  <advance width="440"/>
  <unicode hex="0061"/>
  <outline>
    <contour>
      <point x="293" y="224" type="line"/>
      <point x="292" y="248" type="line"/>
      <point x="212" y="241" type="line" smooth="yes"/>
      <point x="103" y="231"/>
      <point x="5" y="200"/>
      <point x="5" y="100" type="curve"/>
      <point x="5" y="30"/>
      <point x="61" y="-10"/>
      <point x="126" y="-10" type="curve"/>
      <point x="190" y="-10"/>
      <point x="274" y="52"/>
      <point x="310" y="122" type="curve"/>
      <point x="290" y="137" type="line"/>
      <point x="288" y="96"/>
      <point x="211" y="62"/>
      <point x="166" y="62" type="curve"/>
      <point x="122" y="62"/>
      <point x="95" y="83"/>
      <point x="95" y="120" type="curve"/>
      <point x="95" y="161"/>
      <point x="122" y="201"/>
      <point x="240" y="217" type="curve"/>
    </contour>
    <contour>
      <point x="147" y="371" type="curve"/>
      <point x="155" y="344" type="line"/>
      <point x="258" y="364"/>
      <point x="285" y="347"/>
      <point x="285" y="314" type="curve"/>
      <point x="285" y="232"/>
      <point x="289" y="174"/>
      <point x="289" y="94" type="curve"/>
      <point x="289" y="74"/>
      <point x="300" y="33"/>
      <point x="315" y="-10" type="curve"/>
      <point x="435" y="42" type="line"/>
      <point x="431" y="64" type="line"/>
      <point x="375" y="64"/>
      <point x="379" y="90"/>
      <point x="374" y="175" type="curve"/>
      <point x="371" y="224"/>
      <point x="372" y="357"/>
      <point x="394" y="421" type="curve"/>
      <point x="386" y="440" type="line"/>
      <point x="317" y="416"/>
      <point x="238" y="393"/>
    </contour>
  </outline>
</glyph>
<glyph name="c" format="1">
  <advance width="370"/>
  <unicode hex="0063"/>
  <outline>
    <contour>
      <point x="367" y="406" type="line"/>
      <point x="367" y="423" type="line"/>
      <point x="313" y="433"/>
      <point x="280" y="440"/>
      <point x="243" y="440" type="curve"/>
      <point x="209" y="440"/>
      <point x="143" y="396"/>
      <point x="126" y="381" type="curve"/>
      <point x="86" y="346"/>
      <point x="40" y="270"/>
      <point x="40" y="172" type="curve"/>
      <point x="40" y="62"/>
      <point x="86" y="-10"/>
      <point x="186" y="-10" type="curve"/>
      <point x="258" y="-10"/>
      <point x="327" y="41"/>
      <point x="360" y="72" type="curve"/>
      <point x="347" y="93" type="line"/>
      <point x="321" y="77"/>
      <point x="282" y="65"/>
      <point x="236" y="65" type="curve"/>
      <point x="156" y="65"/>
      <point x="117" y="137"/>
      <point x="117" y="217" type="curve"/>
      <point x="117" y="340"/>
      <point x="180" y="373"/>
      <point x="191" y="387" type="curve"/>
      <point x="139" y="359" type="line"/>
      <point x="190" y="365"/>
      <point x="242" y="362"/>
      <point x="293" y="348" type="curve"/>
    </contour>
  </outline>
</glyph>
<glyph name="d" format="1">
  <advance width="459"/>
  <unicode hex="0064"/>
  <outline>
    <contour>
      <point x="204" y="700" type="curve"/>
      <point x="204" y="669" type="line"/>
      <point x="276" y="669"/>
      <point x="299" y="649"/>
      <point x="301" y="594" type="curve"/>
      <point x="308" y="443"/>
      <point x="312" y="235"/>
      <point x="312" y="81" type="curve"/>
      <point x="319" y="-8" type="line"/>
      <point x="323" y="-12" type="line"/>
      <point x="450" y="35" type="line"/>
      <point x="448" y="61" type="line"/>
      <point x="412" y="77"/>
      <point x="400" y="92"/>
      <point x="397" y="186" type="curve"/>
      <point x="388" y="474"/>
      <point x="405" y="710"/>
      <point x="405" y="710" type="curve"/>
      <point x="352" y="704"/>
      <point x="281" y="700"/>
    </contour>
    <contour>
      <point x="319" y="333" type="curve"/>
      <point x="336" y="426" type="line"/>
      <point x="308" y="430"/>
      <point x="267" y="435"/>
      <point x="225" y="435" type="curve"/>
      <point x="137" y="435"/>
      <point x="30" y="316"/>
      <point x="30" y="176" type="curve"/>
      <point x="30" y="76"/>
      <point x="104" y="-10"/>
      <point x="204" y="-10" type="curve"/>
      <point x="231" y="10"/>
      <point x="270" y="37"/>
      <point x="321" y="85" type="curve"/>
      <point x="319" y="106" type="line"/>
      <point x="210" y="44"/>
      <point x="91" y="96"/>
      <point x="91" y="228" type="curve"/>
      <point x="91" y="317"/>
      <point x="145" y="369"/>
      <point x="210" y="369" type="curve"/>
      <point x="254" y="369"/>
      <point x="287" y="360"/>
    </contour>
  </outline>
</glyph>
<glyph name="g" format="1">
  <advance width="524"/>
  <unicode hex="0067"/>
  <outline>
    <contour>
      <point x="285" y="-61" type="curve"/>
      <point x="161" y="-60" type="line"/>
      <point x="125" y="-75"/>
      <point x="38" y="-129"/>
      <point x="38" y="-177" type="curve"/>
      <point x="38" y="-262"/>
      <point x="166" y="-310"/>
      <point x="282" y="-310" type="curve"/>
      <point x="421" y="-310"/>
      <point x="524" y="-266"/>
      <point x="524" y="-139" type="curve"/>
      <point x="524" y="-64"/>
      <point x="445" y="10"/>
      <point x="376" y="10" type="curve"/>
      <point x="331" y="10"/>
      <point x="274" y="0"/>
      <point x="225" y="0" type="curve"/>
      <point x="188" y="0"/>
      <point x="159" y="13"/>
      <point x="159" y="26" type="curve"/>
      <point x="159" y="55"/>
      <point x="215" y="89"/>
      <point x="282" y="105" type="curve"/>
      <point x="349" y="121"/>
      <point x="412" y="177"/>
      <point x="412" y="262" type="curve"/>
      <point x="412" y="312"/>
      <point x="389" y="358"/>
      <point x="367" y="382" type="curve"/>
      <point x="422" y="382"/>
      <point x="474" y="379"/>
      <point x="509" y="374" type="curve"/>
      <point x="509" y="438" type="line"/>
      <point x="393" y="430"/>
      <point x="344" y="442"/>
      <point x="240" y="442" type="curve"/>
      <point x="124" y="442"/>
      <point x="40" y="364"/>
      <point x="40" y="258" type="curve"/>
      <point x="40" y="161"/>
      <point x="100" y="113"/>
      <point x="176" y="97" type="curve"/>
      <point x="156" y="71"/>
      <point x="104" y="48"/>
      <point x="85" y="30" type="curve"/>
      <point x="85" y="8"/>
      <point x="113" y="-47"/>
      <point x="166" y="-66" type="curve"/>
      <point x="285" y="-66" type="line" smooth="yes"/>
      <point x="408" y="-66"/>
      <point x="476" y="-85"/>
      <point x="476" y="-152" type="curve"/>
      <point x="476" y="-226"/>
      <point x="368" y="-247"/>
      <point x="282" y="-247" type="curve"/>
      <point x="186" y="-247"/>
      <point x="117" y="-213"/>
      <point x="117" y="-156" type="curve"/>
      <point x="117" y="-115"/>
      <point x="170" y="-73"/>
    </contour>
    <contour>
      <point x="127" y="282" type="curve"/>
      <point x="127" y="325"/>
      <point x="159" y="377"/>
      <point x="212" y="377" type="curve"/>
      <point x="282" y="377"/>
      <point x="326" y="297"/>
      <point x="326" y="234" type="curve"/>
      <point x="326" y="180"/>
      <point x="299" y="140"/>
      <point x="244" y="140" type="curve"/>
      <point x="193" y="140"/>
      <point x="127" y="197"/>
    </contour>
  </outline>
</glyph>
<glyph name="h" format="1">
  <advance width="514"/>
  <unicode hex="0068"/>
  <outline>
    <contour>
      <point x="23" y="32" type="curve"/>
      <point x="23" y="-3" type="line"/>
      <point x="71" y="5"/>
      <point x="165" y="2"/>
      <point x="198" y="-3" type="curve"/>
      <point x="198" y="33" type="line"/>
      <point x="167" y="40"/>
      <point x="156" y="44"/>
      <point x="155" y="61" type="curve"/>
      <point x="143" y="260"/>
      <point x="148" y="457"/>
      <point x="155" y="636" type="curve"/>
      <point x="156" y="671"/>
      <point x="158" y="683"/>
      <point x="227" y="700" type="curve"/>
      <point x="221" y="740" type="line"/>
      <point x="152" y="724"/>
      <point x="84" y="712"/>
      <point x="15" y="700" type="curve"/>
      <point x="15" y="665" type="line"/>
      <point x="49" y="665"/>
      <point x="56" y="649"/>
      <point x="58" y="573" type="curve"/>
      <point x="60" y="511"/>
      <point x="72" y="322"/>
      <point x="61" y="93" type="curve"/>
      <point x="59" y="53"/>
      <point x="56" y="45"/>
    </contour>
    <contour>
      <point x="275" y="14" type="curve"/>
      <point x="293" y="-10" type="line"/>
      <point x="423" y="53"/>
      <point x="484" y="142"/>
      <point x="484" y="231" type="curve"/>
      <point x="484" y="339"/>
      <point x="413" y="430"/>
      <point x="322" y="440" type="curve"/>
      <point x="126" y="372" type="line"/>
      <point x="130" y="347" type="line"/>
      <point x="284" y="391"/>
      <point x="408" y="322"/>
      <point x="408" y="198" type="curve"/>
      <point x="408" y="121"/>
      <point x="358" y="64"/>
    </contour>
  </outline>
</glyph>
<glyph name="i" format="1">
  <advance width="247"/>
  <unicode hex="0069"/>
  <outline>
    <contour>
      <point x="27" y="363" type="curve"/>
      <point x="20" y="398" type="line"/>
      <point x="78" y="413"/>
      <point x="131" y="428"/>
      <point x="179" y="444" type="curve"/>
      <point x="188" y="423" type="line"/>
      <point x="160" y="390"/>
      <point x="164" y="235"/>
      <point x="165" y="160" type="curve"/>
      <point x="166" y="75"/>
      <point x="179" y="65"/>
      <point x="235" y="65" type="curve"/>
      <point x="242" y="35" type="line"/>
      <point x="138" y="-10" type="line"/>
      <point x="108" y="-10"/>
      <point x="75" y="40"/>
      <point x="75" y="80" type="curve"/>
      <point x="75" y="160"/>
      <point x="81" y="254"/>
      <point x="81" y="304" type="curve"/>
      <point x="81" y="367"/>
      <point x="60" y="366"/>
    </contour>
  </outline>
</glyph>
<glyph name="j" format="1">
  <advance width="218"/>
  <unicode hex="006A"/>
  <outline>
    <contour>
      <point x="32" y="363" type="curve"/>
      <point x="25" y="398" type="line"/>
      <point x="83" y="413"/>
      <point x="136" y="428"/>
      <point x="184" y="444" type="curve"/>
      <point x="193" y="423" type="line"/>
      <point x="165" y="390"/>
      <point x="169" y="145"/>
      <point x="170" y="70" type="curve"/>
      <point x="171" y="-5"/>
      <point x="92" y="-191"/>
      <point x="59" y="-238" type="curve"/>
      <point x="27" y="-219" type="line"/>
      <point x="57" y="-152"/>
      <point x="87" y="-62"/>
      <point x="86" y="50" type="curve"/>
      <point x="85" y="128"/>
      <point x="85" y="226"/>
      <point x="86" y="304" type="curve"/>
      <point x="87" y="367"/>
      <point x="65" y="366"/>
    </contour>
  </outline>
</glyph>
<glyph name="n" format="1">
  <advance width="529"/>
  <unicode hex="006E"/>
  <outline>
    <contour>
      <point x="341" y="9" type="curve"/>
      <point x="345" y="-6" type="line"/>
      <point x="396" y="6"/>
      <point x="434" y="4"/>
      <point x="504" y="0" type="curve"/>
      <point x="504" y="35" type="line"/>
      <point x="475" y="41"/>
      <point x="451" y="49"/>
      <point x="447" y="76" type="curve"/>
      <point x="440" y="115"/>
      <point x="454" y="215"/>
      <point x="454" y="298" type="curve"/>
      <point x="454" y="378"/>
      <point x="429" y="440"/>
      <point x="359" y="440" type="curve"/>
      <point x="289" y="440"/>
      <point x="219" y="391"/>
      <point x="161" y="365" type="curve"/>
      <point x="167" y="304" type="line"/>
      <point x="185" y="342"/>
      <point x="229" y="365"/>
      <point x="271" y="365" type="curve"/>
      <point x="341" y="365"/>
      <point x="374" y="312"/>
      <point x="374" y="218" type="curve"/>
      <point x="374" y="147"/>
      <point x="371" y="92"/>
    </contour>
    <contour>
      <point x="172" y="359" type="curve"/>
      <point x="164" y="389"/>
      <point x="143" y="432"/>
      <point x="87" y="440" type="curve"/>
      <point x="25" y="387" type="line"/>
      <point x="25" y="365" type="line"/>
      <point x="70" y="348"/>
      <point x="86" y="337"/>
      <point x="87" y="276" type="curve"/>
      <point x="89" y="170"/>
      <point x="84" y="81"/>
      <point x="75" y="0" type="curve"/>
      <point x="175" y="0" type="line"/>
      <point x="170" y="93"/>
      <point x="171" y="85"/>
    </contour>
  </outline>
</glyph>
<glyph name="p" format="1">
  <advance width="521"/>
  <unicode hex="0070"/>
  <outline>
    <contour>
      <point x="162" y="-204" type="curve"/>
      <point x="162" y="-119"/>
      <point x="157" y="171"/>
      <point x="161" y="361" type="curve"/>
      <point x="163" y="441" type="line"/>
      <point x="149" y="452" type="line"/>
      <point x="109" y="443"/>
      <point x="73" y="438"/>
      <point x="31" y="430" type="curve"/>
      <point x="31" y="395" type="line"/>
      <point x="60" y="387"/>
      <point x="71" y="376"/>
      <point x="75" y="319" type="curve"/>
      <point x="83" y="206"/>
      <point x="69" y="-175"/>
      <point x="67" y="-218" type="curve"/>
      <point x="66" y="-251"/>
      <point x="55" y="-258"/>
      <point x="25" y="-269" type="curve"/>
      <point x="25" y="-304" type="line"/>
      <point x="97" y="-300"/>
      <point x="184" y="-300"/>
      <point x="226" y="-304" type="curve"/>
      <point x="226" y="-274" type="line"/>
      <point x="174" y="-256"/>
      <point x="162" y="-255"/>
    </contour>
    <contour>
      <point x="147" y="109" type="curve"/>
      <point x="123" y="17" type="line"/>
      <point x="157" y="-2"/>
      <point x="208" y="-9"/>
      <point x="258" y="-9" type="curve"/>
      <point x="409" y="-9"/>
      <point x="491" y="119"/>
      <point x="491" y="235" type="curve"/>
      <point x="491" y="345"/>
      <point x="438" y="440"/>
      <point x="339" y="440" type="curve"/>
      <point x="287" y="440"/>
      <point x="189" y="391"/>
      <point x="123" y="372" type="curve"/>
      <point x="131" y="336" type="line"/>
      <point x="157" y="352"/>
      <point x="210" y="370"/>
      <point x="258" y="370" type="curve"/>
      <point x="327" y="370"/>
      <point x="410" y="303"/>
      <point x="410" y="186" type="curve"/>
      <point x="410" y="114"/>
      <point x="377" y="40"/>
      <point x="286" y="40" type="curve"/>
      <point x="210" y="40"/>
      <point x="180" y="71"/>
    </contour>
  </outline>
</glyph>
<glyph name="s" format="1">
  <advance width="261"/>
  <unicode hex="0073"/>
  <outline>
    <contour>
      <point x="68" y="0" type="curve"/>
      <point x="163" y="0" type="line"/>
      <point x="152" y="188"/>
      <point x="154" y="387"/>
      <point x="154" y="541" type="curve"/>
      <point x="154" y="614"/>
      <point x="191" y="655"/>
      <point x="246" y="655" type="curve"/>
      <point x="282" y="655"/>
      <point x="311" y="625"/>
      <point x="328" y="594" type="curve"/>
      <point x="401" y="601" type="line"/>
      <point x="406" y="614" type="line"/>
      <point x="390" y="673"/>
      <point x="345" y="712"/>
      <point x="282" y="712" type="curve"/>
      <point x="174" y="712"/>
      <point x="98" y="612"/>
      <point x="83" y="523" type="curve"/>
      <point x="66" y="421"/>
      <point x="61" y="406"/>
      <point x="35" y="383" type="curve"/>
      <point x="35" y="372" type="line"/>
      <point x="48" y="363"/>
      <point x="67" y="341"/>
      <point x="67" y="303" type="curve"/>
      <point x="67" y="166"/>
      <point x="70" y="86"/>
    </contour>
  </outline>
</glyph>
<glyph name="t" format="1">
  <advance width="335"/>
  <unicode hex="0074"/>
  <outline>
    <contour>
      <point x="127" y="161" type="curve"/>
      <point x="127" y="361"/>
      <point x="141" y="432"/>
      <point x="156" y="475" type="curve"/>
      <point x="139" y="483" type="line"/>
      <point x="108" y="460"/>
      <point x="66" y="427"/>
      <point x="61" y="427" type="curve"/>
      <point x="26" y="424" type="line"/>
      <point x="25" y="421" type="line"/>
      <point x="48" y="357" type="line"/>
      <point x="47" y="308"/>
      <point x="45" y="198"/>
      <point x="45" y="112" type="curve"/>
      <point x="45" y="17"/>
      <point x="68" y="-10"/>
      <point x="144" y="-10" type="curve"/>
      <point x="195" y="-10"/>
      <point x="282" y="30"/>
      <point x="329" y="63" type="curve"/>
      <point x="321" y="81" type="line"/>
      <point x="283" y="70"/>
      <point x="235" y="65"/>
      <point x="199" y="65" type="curve"/>
      <point x="149" y="65"/>
      <point x="127" y="97"/>
    </contour>
    <contour>
      <point x="328" y="429" type="line"/>
      <point x="108" y="429" type="line"/>
      <point x="108" y="365" type="line"/>
      <point x="179" y="369"/>
      <point x="252" y="369"/>
      <point x="327" y="365" type="curve"/>
    </contour>
  </outline>
</glyph>
<glyph name="u" format="1">
  <advance width="494"/>
  <unicode hex="0075"/>
  <outline>
    <contour>
      <point x="43" y="132" type="curve"/>
      <point x="43" y="52"/>
      <point x="66" y="-10"/>
      <point x="160" y="-10" type="curve"/>
      <point x="216" y="-10"/>
      <point x="313" y="65"/>
      <point x="385" y="121" type="curve"/>
      <point x="367" y="146" type="line"/>
      <point x="349" y="126"/>
      <point x="270" y="65"/>
      <point x="200" y="65" type="curve"/>
      <point x="146" y="65"/>
      <point x="123" y="94"/>
      <point x="123" y="171" type="curve"/>
      <point x="123" y="270"/>
      <point x="133" y="373"/>
      <point x="160" y="419" type="curve"/>
      <point x="154" y="432" type="line"/>
      <point x="125" y="429"/>
      <point x="65" y="429"/>
      <point x="4" y="429" type="curve"/>
      <point x="4" y="394" type="line"/>
      <point x="38" y="387"/>
      <point x="55" y="369"/>
      <point x="55" y="310" type="curve"/>
      <point x="55" y="273"/>
      <point x="43" y="203"/>
    </contour>
    <contour>
      <point x="297" y="430" type="curve"/>
      <point x="297" y="395" type="line"/>
      <point x="320" y="392"/>
      <point x="345" y="389"/>
      <point x="345" y="356" type="curve"/>
      <point x="345" y="276"/>
      <point x="335" y="152"/>
      <point x="335" y="92" type="curve"/>
      <point x="335" y="52"/>
      <point x="358" y="12"/>
      <point x="388" y="-10" type="curve"/>
      <point x="489" y="35" type="line"/>
      <point x="482" y="65" type="line"/>
      <point x="426" y="65"/>
      <point x="422" y="95"/>
      <point x="422" y="180" type="curve"/>
      <point x="422" y="269"/>
      <point x="424" y="375"/>
      <point x="446" y="412" type="curve"/>
      <point x="436" y="433" type="line"/>
      <point x="398" y="430"/>
      <point x="357" y="430"/>
    </contour>
  </outline>
</glyph>
<glyph name="w" format="1">
  <advance width="813"/>
  <unicode hex="0077"/>
  <outline>
    <contour>
      <point x="369" y="433" type="curve"/>
      <point x="369" y="398" type="line"/>
      <point x="419" y="389"/>
      <point x="425" y="378"/>
      <point x="391" y="308" type="curve"/>
      <point x="273" y="62" type="line"/>
      <point x="297" y="82" type="line"/>
      <point x="189" y="325" type="line" smooth="yes"/>
      <point x="178" y="349"/>
      <point x="160" y="393"/>
      <point x="243" y="399" type="curve"/>
      <point x="243" y="433" type="line"/>
      <point x="152" y="430"/>
      <point x="85" y="429"/>
      <point x="10" y="433" type="curve"/>
      <point x="10" y="399" type="line"/>
      <point x="52" y="393"/>
      <point x="68" y="375"/>
      <point x="93" y="323" type="curve"/>
      <point x="250" y="-5" type="line"/>
      <point x="289" y="-5" type="line"/>
      <point x="303" y="37"/>
      <point x="313" y="63"/>
      <point x="345" y="127" type="curve"/>
      <point x="424" y="286"/>
      <point x="464" y="390"/>
      <point x="542" y="399" type="curve"/>
      <point x="542" y="433" type="line"/>
      <point x="484" y="429"/>
      <point x="429" y="429"/>
    </contour>
    <contour>
      <point x="569" y="80" type="line"/>
      <point x="456" y="351" type="line"/>
      <point x="401" y="272" type="line"/>
      <point x="516" y="-5" type="line"/>
      <point x="555" y="-5" type="line"/>
      <point x="569" y="37"/>
      <point x="582" y="64"/>
      <point x="614" y="128" type="curve"/>
      <point x="706" y="313"/>
      <point x="725" y="380"/>
      <point x="803" y="399" type="curve"/>
      <point x="803" y="433" type="line"/>
      <point x="735" y="429"/>
      <point x="686" y="429"/>
      <point x="636" y="433" type="curve"/>
      <point x="636" y="398" type="line"/>
      <point x="676" y="389"/>
      <point x="686" y="376"/>
      <point x="655" y="308" type="curve"/>
      <point x="542" y="61" type="line"/>
    </contour>
  </outline>
</glyph>
<glyph name="x" format="1">
  <advance width="572"/>
  <unicode hex="0078"/>
  <outline>
    <contour>
      <point x="246" y="181" type="curve"/>
      <point x="317" y="80"/>
      <point x="397" y="-10"/>
      <point x="424" y="-10" type="curve"/>
      <point x="444" y="-10"/>
      <point x="538" y="14"/>
      <point x="567" y="35" type="curve"/>
      <point x="555" y="62" type="line"/>
      <point x="536" y="56"/>
      <point x="530" y="52"/>
      <point x="510" y="52" type="curve"/>
      <point x="440" y="52"/>
      <point x="390" y="139"/>
      <point x="308" y="254" type="curve"/>
      <point x="256" y="326"/>
      <point x="198" y="426"/>
      <point x="167" y="430" type="curve"/>
      <point x="133" y="434"/>
      <point x="46" y="411"/>
      <point x="5" y="399" type="curve"/>
      <point x="11" y="365" type="line"/>
      <point x="29" y="369"/>
      <point x="51" y="371"/>
      <point x="64" y="371" type="curve"/>
      <point x="133" y="371"/>
      <point x="182" y="272"/>
    </contour>
    <contour>
      <point x="64" y="-10" type="curve"/>
      <point x="130" y="-10"/>
      <point x="220" y="80"/>
      <point x="287" y="158" type="curve"/>
      <point x="260" y="188" type="line"/>
      <point x="202" y="115"/>
      <point x="143" y="65"/>
      <point x="91" y="65" type="curve"/>
      <point x="62" y="65"/>
      <point x="47" y="71"/>
      <point x="32" y="95" type="curve"/>
      <point x="13" y="90" type="line"/>
      <point x="5" y="2" type="line"/>
      <point x="19" y="-6"/>
      <point x="35" y="-10"/>
    </contour>
    <contour>
      <point x="293" y="238" type="line"/>
      <point x="325" y="211" type="line"/>
      <point x="387" y="296" type="line" smooth="yes"/>
      <point x="446" y="377"/>
      <point x="446" y="386"/>
      <point x="543" y="397" type="curve"/>
      <point x="561" y="399" type="line"/>
      <point x="561" y="433" type="line"/>
      <point x="490" y="428"/>
      <point x="418" y="429"/>
      <point x="375" y="433" type="curve"/>
      <point x="368" y="413" type="line"/>
      <point x="379" y="392"/>
      <point x="372" y="352"/>
      <point x="338" y="303" type="curve"/>
    </contour>
  </outline>
</glyph>
<glyph name="z" format="1">
  <advance width="509"/>
  <unicode hex="007A"/>
  <outline>
    <contour>
      <point x="516" y="105" type="line"/>
      <point x="498" y="120" type="line"/>
      <point x="409" y="74"/>
      <point x="250" y="64"/>
      <point x="64" y="64" type="curve"/>
      <point x="63" y="29" type="line"/>
      <point x="403" y="342"/>
      <point x="469" y="396"/>
      <point x="519" y="430" type="curve"/>
      <point x="497" y="453" type="line"/>
      <point x="471" y="433"/>
      <point x="421" y="438"/>
      <point x="353" y="438" type="curve"/>
      <point x="276" y="438"/>
      <point x="218" y="440"/>
      <point x="110" y="440" type="curve"/>
      <point x="101" y="440"/>
      <point x="58" y="397"/>
      <point x="14" y="365" type="curve"/>
      <point x="35" y="343" type="line"/>
      <point x="47" y="356"/>
      <point x="151" y="365"/>
      <point x="246" y="365" type="curve"/>
      <point x="383" y="365" type="line"/>
      <point x="383" y="376" type="line"/>
      <point x="0" y="32" type="line"/>
      <point x="0" y="-3" type="line"/>
      <point x="117" y="2"/>
      <point x="294" y="3"/>
      <point x="417" y="-3" type="curve"/>
    </contour>
  </outline>
</glyph>
<glyph name="a_macr" format="1">
  <advance width="456"/>
  <unicode hex="0101"/>
  <outline>
    <contour>
      <point x="151" y="488" type="curve"/>
      <point x="172" y="464" type="line"/>
      <point x="197" y="491"/>
      <point x="219" y="498"/>
      <point x="253" y="498" type="curve"/>
      <point x="288" y="498"/>
      <point x="302" y="494"/>
      <point x="338" y="494" type="curve"/>
      <point x="378" y="522"/>
      <point x="407" y="554"/>
      <point x="451" y="604" type="curve"/>
      <point x="427" y="623" type="line"/>
      <point x="395" y="592"/>
      <point x="374" y="565"/>
      <point x="343" y="565" type="curve"/>
      <point x="300" y="565"/>
      <point x="287" y="572"/>
      <point x="243" y="572" type="curve"/>
      <point x="204" y="540"/>
      <point x="182" y="517"/>
    </contour>
    <component base="a"/>
  </outline>
</glyph>
<glyph name="e_macr" format="1">
  <advance width="422"/>
  <unicode hex="0113"/>
  <outline>
    <contour>
      <point x="61" y="488" type="curve"/>
      <point x="82" y="464" type="line"/>
      <point x="107" y="491"/>
      <point x="159" y="498"/>
      <point x="193" y="498" type="curve"/>
      <point x="228" y="498"/>
      <point x="242" y="494"/>
      <point x="278" y="494" type="curve"/>
      <point x="318" y="522"/>
      <point x="347" y="554"/>
      <point x="391" y="604" type="curve"/>
      <point x="367" y="623" type="line"/>
      <point x="335" y="592"/>
      <point x="314" y="565"/>
      <point x="283" y="565" type="curve"/>
      <point x="250" y="565"/>
      <point x="223" y="571"/>
      <point x="191" y="571" type="curve"/>
      <point x="152" y="546"/>
      <point x="92" y="517"/>
    </contour>
    <component base="e"/>
  </outline>
</glyph>
<glyph name="i_macr" format="1">
  <advance width="255"/>
  <unicode hex="012B"/>
  <outline>
    <contour>
      <point x="20" y="434" type="curve"/>
      <point x="51" y="425" type="line"/>
      <point x="59" y="463"/>
      <point x="112" y="467"/>
      <point x="191" y="476" type="curve"/>
      <point x="198" y="500"/>
      <point x="213" y="549"/>
      <point x="233" y="633" type="curve"/>
      <point x="189" y="647" type="line"/>
      <point x="192" y="571"/>
      <point x="185" y="566"/>
      <point x="71" y="545" type="curve"/>
      <point x="53" y="512"/>
      <point x="35" y="468"/>
    </contour>
    <component base="i" xOffset="8"/>
  </outline>
</glyph>
<glyph name="o_macr" format="1">
  <advance width="482"/>
  <unicode hex="014D"/>
  <outline>
    <contour>
      <point x="71" y="475" type="curve"/>
      <point x="100" y="458" type="line"/>
      <point x="188" y="501"/>
      <point x="194" y="496"/>
      <point x="286" y="505" type="curve"/>
      <point x="332" y="541"/>
      <point x="373" y="577"/>
      <point x="411" y="659" type="curve"/>
      <point x="370" y="677" type="line"/>
      <point x="343" y="592"/>
      <point x="334" y="589"/>
      <point x="216" y="570" type="curve"/>
      <point x="164" y="540"/>
      <point x="112" y="507"/>
    </contour>
    <component base="o"/>
  </outline>
</glyph>
<glyph name="u_macr" format="1">
  <advance width="494"/>
  <unicode hex="016B"/>
  <outline>
    <contour>
      <point x="63" y="489" type="curve"/>
      <point x="95" y="479" type="line"/>
      <point x="142" y="537"/>
      <point x="168" y="542"/>
      <point x="280" y="554" type="curve"/>
      <point x="314" y="594"/>
      <point x="345" y="641"/>
      <point x="362" y="694" type="curve"/>
      <point x="329" y="707" type="line"/>
      <point x="307" y="632"/>
      <point x="305" y="625"/>
      <point x="148" y="614" type="curve"/>
      <point x="129" y="580"/>
      <point x="98" y="545"/>
    </contour>
    <component base="u"/>
  </outline>
</glyph>
<glyph name="gamma" format="1">
  <advance width="497"/>
  <unicode hex="03B3"/>
  <outline>
    <contour>
      <point x="125" y="443" type="curve"/>
      <point x="121" y="364"/>
      <point x="122" y="102"/>
      <point x="125" y="0" type="curve"/>
      <point x="30" y="0" type="line"/>
      <point x="40" y="139"/>
      <point x="50" y="341"/>
      <point x="55" y="527" type="curve"/>
      <point x="249" y="552" type="line" smooth="yes"/>
      <point x="359" y="566"/>
      <point x="421" y="578"/>
      <point x="474" y="638" type="curve"/>
      <point x="497" y="625" type="line"/>
      <point x="482" y="591"/>
      <point x="404" y="493"/>
      <point x="386" y="484" type="curve"/>
      <point x="331" y="456"/>
      <point x="223" y="452"/>
    </contour>
  </outline>
</glyph>
<glyph name="mu" format="1">
  <advance width="424"/>
  <unicode hex="03BC"/>
  <outline>
    <contour>
      <point x="33" y="-247" type="curve"/>
      <point x="133" y="-247" type="line"/>
      <point x="125" y="-1"/>
      <point x="123" y="160"/>
      <point x="130" y="291" type="curve"/>
      <point x="134" y="369"/>
      <point x="141" y="400"/>
      <point x="159" y="416" type="curve"/>
      <point x="150" y="440" type="line"/>
      <point x="30" y="430" type="line"/>
      <point x="40" y="189"/>
      <point x="40" y="133"/>
    </contour>
    <contour>
      <point x="105" y="44" type="curve"/>
      <point x="105" y="-9" type="line"/>
      <point x="343" y="42"/>
      <point x="394" y="133"/>
      <point x="394" y="430" type="curve"/>
      <point x="297" y="430" type="line"/>
      <point x="309" y="223"/>
      <point x="296" y="53"/>
    </contour>
  </outline>
</glyph>
<glyph name="omega" format="1">
  <advance width="627"/>
  <unicode hex="03C9"/>
  <outline>
    <contour>
      <point x="250" y="440" type="curve"/>
      <point x="272" y="341" type="line"/>
      <point x="181" y="318"/>
      <point x="100" y="266"/>
      <point x="100" y="173" type="curve"/>
      <point x="100" y="113"/>
      <point x="152" y="65"/>
      <point x="212" y="65" type="curve"/>
      <point x="282" y="65"/>
      <point x="354" y="148"/>
      <point x="329" y="262" type="curve"/>
      <point x="362" y="277" type="line"/>
      <point x="411" y="143"/>
      <point x="358" y="-10"/>
      <point x="213" y="-10" type="curve"/>
      <point x="103" y="-10"/>
      <point x="40" y="73"/>
      <point x="40" y="183" type="curve"/>
      <point x="40" y="297"/>
      <point x="123" y="406"/>
    </contour>
    <contour>
      <point x="322" y="64" type="curve"/>
      <point x="375" y="125" type="line"/>
      <point x="392" y="83"/>
      <point x="421" y="65"/>
      <point x="452" y="65" type="curve"/>
      <point x="491" y="65"/>
      <point x="559" y="99"/>
      <point x="559" y="174" type="curve"/>
      <point x="559" y="254"/>
      <point x="484" y="315"/>
      <point x="415" y="346" type="curve"/>
      <point x="454" y="440" type="line"/>
      <point x="545" y="400"/>
      <point x="619" y="311"/>
      <point x="619" y="201" type="curve"/>
      <point x="619" y="85"/>
      <point x="538" y="-10"/>
      <point x="443" y="-10" type="curve"/>
      <point x="396" y="-10"/>
      <point x="343" y="22"/>
    </contour>
  </outline>
</glyph>
<glyph name="leo" format="1">
  <advance width="600"/>
  <unicode hex="264C"/>
  <outline>
    <contour>
      <point x="189" y="303" type="curve"/>
      <point x="165" y="322" type="line"/>
      <point x="60" y="253"/>
      <point x="25" y="201"/>
      <point x="25" y="120" type="curve"/>
      <point x="25" y="46"/>
      <point x="92" y="-10"/>
      <point x="183" y="-10" type="curve"/>
      <point x="274" y="-10"/>
      <point x="360" y="53"/>
      <point x="360" y="136" type="curve"/>
      <point x="360" y="199"/>
      <point x="302" y="262"/>
      <point x="268" y="306" type="curve"/>
      <point x="214" y="374"/>
      <point x="150" y="442"/>
      <point x="150" y="475" type="curve"/>
      <point x="150" y="502"/>
      <point x="169" y="520"/>
      <point x="197" y="520" type="curve"/>
      <point x="239" y="520"/>
      <point x="286" y="454"/>
      <point x="337" y="374" type="curve"/>
      <point x="388" y="293"/>
      <point x="457" y="168"/>
      <point x="514" y="102" type="curve"/>
      <point x="580" y="169" type="line"/>
      <point x="528" y="224"/>
      <point x="452" y="334"/>
      <point x="415" y="398" type="curve"/>
      <point x="350" y="510"/>
      <point x="294" y="587"/>
      <point x="198" y="587" type="curve"/>
      <point x="128" y="587"/>
      <point x="76" y="534"/>
      <point x="76" y="469" type="curve"/>
      <point x="76" y="418"/>
      <point x="110" y="369"/>
      <point x="207" y="262" type="curve"/>
      <point x="258" y="206"/>
      <point x="275" y="164"/>
      <point x="275" y="142" type="curve"/>
      <point x="275" y="87"/>
      <point x="235" y="55"/>
      <point x="186" y="55" type="curve"/>
      <point x="137" y="55"/>
      <point x="95" y="87"/>
      <point x="95" y="142" type="curve"/>
      <point x="95" y="183"/>
      <point x="120" y="260"/>
    </contour>
  </outline>
</glyph>
<glyph name="p_bardes" format="1">
  <advance width="521"/>
  <unicode hex="A750"/>
  <outline>
    <contour>
      <point x="22" y="-79" type="curve"/>
      <point x="17" y="-136" type="line"/>
      <point x="119" y="-133"/>
      <point x="242" y="-137"/>
      <point x="344" y="-150" type="curve"/>
      <point x="347" y="-136" type="line"/>
      <point x="246" y="-106"/>
      <point x="123" y="-87"/>
    </contour>
    <component base="p"/>
  </outline>
</glyph>
<glyph name="p_flour" format="1">
  <advance width="636"/>
  <unicode hex="A753"/>
  <outline>
    <contour>
      <point x="8" y="-220" type="curve"/>
      <point x="20" y="-261" type="line"/>
      <point x="123" y="-192"/>
      <point x="104" y="-42"/>
      <point x="165" y="-4" type="curve"/>
      <point x="197" y="16" type="line"/>
      <point x="189" y="50" type="line"/>
      <point x="165" y="30"/>
      <point x="93" y="-1"/>
      <point x="62" y="-48" type="curve"/>
      <point x="36" y="-87"/>
      <point x="50" y="-156"/>
    </contour>
    <contour>
      <point x="172" y="-303" type="curve"/>
      <point x="287" y="-298" type="line"/>
      <point x="277" y="-213"/>
      <point x="272" y="163"/>
      <point x="276" y="353" type="curve"/>
      <point x="278" y="433" type="line"/>
      <point x="264" y="444" type="line"/>
      <point x="224" y="435"/>
      <point x="177" y="423"/>
      <point x="106" y="401" type="curve"/>
      <point x="106" y="361" type="line"/>
      <point x="165" y="376"/>
      <point x="186" y="368"/>
      <point x="190" y="311" type="curve"/>
      <point x="198" y="198"/>
      <point x="184" y="-260"/>
    </contour>
    <contour>
      <point x="262" y="101" type="curve"/>
      <point x="238" y="9" type="line"/>
      <point x="272" y="-10"/>
      <point x="323" y="-17"/>
      <point x="373" y="-17" type="curve"/>
      <point x="524" y="-17"/>
      <point x="606" y="111"/>
      <point x="606" y="227" type="curve"/>
      <point x="606" y="337"/>
      <point x="553" y="432"/>
      <point x="454" y="432" type="curve"/>
      <point x="402" y="432"/>
      <point x="304" y="383"/>
      <point x="238" y="364" type="curve"/>
      <point x="246" y="328" type="line"/>
      <point x="272" y="344"/>
      <point x="325" y="362"/>
      <point x="373" y="362" type="curve"/>
      <point x="442" y="362"/>
      <point x="525" y="295"/>
      <point x="525" y="178" type="curve"/>
      <point x="525" y="106"/>
      <point x="492" y="32"/>
      <point x="401" y="32" type="curve"/>
      <point x="325" y="32"/>
      <point x="295" y="63"/>
    </contour>
  </outline>
</glyph>
<glyph name="q_strok" format="1">
  <advance width="692"/>
  <unicode hex="A759"/>
  <outline>
    <contour>
      <point x="239" y="-171" type="curve"/>
      <point x="262" y="-196" type="line"/>
      <point x="469" y="-61"/>
      <point x="662" y="101"/>
      <point x="662" y="244" type="curve"/>
      <point x="662" y="307"/>
      <point x="617" y="365"/>
      <point x="575" y="375" type="curve"/>
      <point x="561" y="365"/>
      <point x="510" y="310"/>
      <point x="471" y="290" type="curve"/>
      <point x="471" y="258" type="line"/>
      <point x="545" y="303"/>
      <point x="592" y="267"/>
      <point x="592" y="204" type="curve"/>
      <point x="592" y="54"/>
      <point x="343" y="-101"/>
    </contour>
    <contour>
      <point x="443" y="123" type="curve"/>
      <point x="422" y="160" type="line"/>
      <point x="405" y="106"/>
      <point x="332" y="56"/>
      <point x="269" y="56" type="curve"/>
      <point x="177" y="56"/>
      <point x="116" y="122"/>
      <point x="116" y="230" type="curve"/>
      <point x="116" y="326"/>
      <point x="171" y="392"/>
      <point x="275" y="392" type="curve"/>
      <point x="357" y="392"/>
      <point x="407" y="336"/>
      <point x="408" y="234" type="curve"/>
      <point x="410" y="129" type="line"/>
      <point x="410" y="113" type="line" smooth="yes"/>
      <point x="412" y="-89"/>
      <point x="408" y="-201"/>
      <point x="406" y="-225" type="curve"/>
      <point x="403" y="-256"/>
      <point x="401" y="-264"/>
      <point x="354" y="-268" type="curve"/>
      <point x="354" y="-303" type="line"/>
      <point x="396" y="-300"/>
      <point x="495" y="-299"/>
      <point x="557" y="-303" type="curve"/>
      <point x="557" y="-268" type="line"/>
      <point x="510" y="-262"/>
      <point x="507" y="-261"/>
      <point x="504" y="-213" type="curve"/>
      <point x="499" y="-122"/>
      <point x="495" y="62"/>
      <point x="497" y="244" type="curve"/>
      <point x="498" y="363"/>
      <point x="510" y="383"/>
      <point x="522" y="430" type="curve"/>
      <point x="514" y="440" type="line"/>
      <point x="488" y="434"/>
      <point x="467" y="432"/>
      <point x="437" y="432" type="curve"/>
      <point x="391" y="432"/>
      <point x="328" y="441"/>
      <point x="266" y="441" type="curve"/>
      <point x="136" y="441"/>
      <point x="30" y="347"/>
      <point x="30" y="197" type="curve"/>
      <point x="30" y="97"/>
      <point x="83" y="-10"/>
      <point x="213" y="-10" type="curve"/>
      <point x="342" y="-10"/>
      <point x="392" y="69"/>
    </contour>
  </outline>
</glyph>
<glyph name="m_macr" format="1">
  <advance width="761"/>
  <unicode hex="E5B8"/>
  <outline>
    <contour>
      <point x="181" y="509" type="curve"/>
      <point x="202" y="485" type="line"/>
      <point x="227" y="512"/>
      <point x="279" y="519"/>
      <point x="313" y="519" type="curve"/>
      <point x="348" y="519"/>
      <point x="495" y="515"/>
      <point x="531" y="515" type="curve"/>
      <point x="571" y="543"/>
      <point x="600" y="575"/>
      <point x="624" y="596" type="curve"/>
      <point x="600" y="615" type="line"/>
      <point x="588" y="613"/>
      <point x="567" y="586"/>
      <point x="536" y="586" type="curve"/>
      <point x="503" y="586"/>
      <point x="313" y="592"/>
      <point x="281" y="592" type="curve"/>
      <point x="252" y="567"/>
      <point x="212" y="538"/>
    </contour>
    <component base="m"/>
  </outline>
</glyph>
<glyph name="n_macr" format="1">
  <advance width="499"/>
  <unicode hex="E5DC"/>
  <outline>
    <contour>
      <point x="341" y="9" type="curve"/>
      <point x="345" y="-6" type="line"/>
      <point x="396" y="6"/>
      <point x="434" y="4"/>
      <point x="504" y="0" type="curve"/>
      <point x="504" y="35" type="line"/>
      <point x="475" y="41"/>
      <point x="451" y="49"/>
      <point x="447" y="76" type="curve"/>
      <point x="440" y="115"/>
      <point x="454" y="215"/>
      <point x="454" y="298" type="curve"/>
      <point x="454" y="378"/>
      <point x="409" y="440"/>
      <point x="339" y="440" type="curve"/>
      <point x="269" y="440"/>
      <point x="247" y="407"/>
      <point x="191" y="351" type="curve"/>
      <point x="197" y="304" type="line"/>
      <point x="215" y="342"/>
      <point x="245" y="365"/>
      <point x="291" y="365" type="curve"/>
      <point x="341" y="365"/>
      <point x="374" y="312"/>
      <point x="374" y="218" type="curve"/>
      <point x="374" y="147"/>
      <point x="371" y="92"/>
    </contour>
    <contour>
      <point x="202" y="359" type="curve"/>
      <point x="194" y="389"/>
      <point x="173" y="422"/>
      <point x="87" y="440" type="curve"/>
      <point x="35" y="387" type="line"/>
      <point x="35" y="365" type="line"/>
      <point x="100" y="348"/>
      <point x="116" y="337"/>
      <point x="117" y="276" type="curve"/>
      <point x="119" y="170"/>
      <point x="114" y="81"/>
      <point x="105" y="0" type="curve"/>
      <point x="205" y="0" type="line"/>
      <point x="200" y="93"/>
      <point x="201" y="85"/>
    </contour>
    <contour>
      <point x="112" y="524" type="curve"/>
      <point x="133" y="500" type="line"/>
      <point x="147" y="512"/>
      <point x="199" y="519"/>
      <point x="233" y="519" type="curve"/>
      <point x="268" y="519"/>
      <point x="327" y="515"/>
      <point x="363" y="515" type="curve"/>
      <point x="403" y="543"/>
      <point x="432" y="575"/>
      <point x="444" y="586" type="curve"/>
      <point x="420" y="605" type="line"/>
      <point x="409" y="599"/>
      <point x="399" y="586"/>
      <point x="368" y="586" type="curve"/>
      <point x="335" y="586"/>
      <point x="233" y="592"/>
      <point x="201" y="592" type="curve"/>
      <point x="172" y="567"/>
      <point x="132" y="538"/>
    </contour>
  </outline>
</glyph>
<glyph name="p_macr" format="1">
  <advance width="515"/>
  <unicode hex="E665"/>
  <outline>
    <contour>
      <point x="107" y="521" type="curve"/>
      <point x="131" y="497" type="line"/>
      <point x="176" y="534"/>
      <point x="196" y="540"/>
      <point x="279" y="537" type="curve"/>
      <point x="325" y="578"/>
      <point x="352" y="603"/>
      <point x="389" y="654" type="curve"/>
      <point x="352" y="666" type="line"/>
      <point x="330" y="628"/>
      <point x="328" y="617"/>
      <point x="213" y="616" type="curve"/>
      <point x="171" y="583"/>
      <point x="145" y="560"/>
    </contour>
    <contour>
      <point x="156" y="-253" type="curve"/>
      <point x="156" y="-128"/>
      <point x="151" y="171"/>
      <point x="155" y="361" type="curve"/>
      <point x="157" y="431" type="line"/>
      <point x="143" y="442" type="line"/>
      <point x="103" y="433"/>
      <point x="67" y="435"/>
      <point x="25" y="430" type="curve"/>
      <point x="25" y="395" type="line"/>
      <point x="54" y="387"/>
      <point x="65" y="376"/>
      <point x="69" y="319" type="curve"/>
      <point x="77" y="206"/>
      <point x="62" y="-181"/>
      <point x="61" y="-224" type="curve"/>
      <point x="60" y="-266"/>
      <point x="59" y="-264"/>
      <point x="36" y="-275" type="curve"/>
      <point x="36" y="-304" type="line"/>
      <point x="91" y="-300"/>
      <point x="178" y="-300"/>
      <point x="220" y="-304" type="curve"/>
      <point x="220" y="-274" type="line"/>
      <point x="158" y="-265"/>
      <point x="156" y="-264"/>
    </contour>
    <contour>
      <point x="141" y="109" type="curve"/>
      <point x="117" y="17" type="line"/>
      <point x="151" y="-2"/>
      <point x="202" y="-9"/>
      <point x="252" y="-9" type="curve"/>
      <point x="403" y="-9"/>
      <point x="485" y="119"/>
      <point x="485" y="235" type="curve"/>
      <point x="485" y="345"/>
      <point x="432" y="440"/>
      <point x="333" y="440" type="curve"/>
      <point x="281" y="440"/>
      <point x="183" y="391"/>
      <point x="117" y="372" type="curve"/>
      <point x="125" y="336" type="line"/>
      <point x="151" y="352"/>
      <point x="204" y="370"/>
      <point x="252" y="370" type="curve"/>
      <point x="321" y="370"/>
      <point x="404" y="303"/>
      <point x="404" y="186" type="curve"/>
      <point x="404" y="114"/>
      <point x="371" y="40"/>
      <point x="280" y="40" type="curve"/>
      <point x="204" y="40"/>
      <point x="174" y="71"/>
    </contour>
  </outline>
</glyph>
<glyph name="longs_i" format="1">
  <advance width="447"/>
  <unicode hex="EBA2"/>
  <outline>
    <contour>
      <point x="68" y="0" type="curve"/>
      <point x="169" y="0" type="line"/>
      <point x="158" y="188"/>
      <point x="144" y="524"/>
      <point x="154" y="610" type="curve"/>
      <point x="200" y="637"/>
      <point x="283" y="641"/>
      <point x="388" y="623" type="curve"/>
      <point x="396" y="687" type="line"/>
      <point x="311" y="735"/>
      <point x="174" y="690"/>
      <point x="120" y="648" type="curve"/>
      <point x="103" y="546"/>
      <point x="61" y="406"/>
      <point x="35" y="383" type="curve"/>
      <point x="35" y="372" type="line"/>
      <point x="48" y="363"/>
      <point x="67" y="341"/>
      <point x="67" y="303" type="curve"/>
      <point x="67" y="166"/>
      <point x="70" y="86"/>
    </contour>
    <component base="i" xOffset="200"/>
  </outline>
</glyph>
<glyph name="c_t" format="1">
  <advance width="781"/>
  <unicode hex="EEC5"/>
  <outline>
    <contour>
      <point x="775" y="70" type="curve"/>
      <point x="765" y="90" type="line"/>
      <point x="741" y="80"/>
      <point x="713" y="67"/>
      <point x="672" y="67" type="curve"/>
      <point x="627" y="67"/>
      <point x="616" y="103"/>
      <point x="617" y="166" type="curve"/>
      <point x="618" y="237"/>
      <point x="614" y="302"/>
      <point x="621" y="373" type="curve"/>
      <point x="664" y="378"/>
      <point x="701" y="376"/>
      <point x="752" y="369" type="curve"/>
      <point x="751" y="437" type="line"/>
      <point x="705" y="430"/>
      <point x="670" y="428"/>
      <point x="624" y="428" type="curve"/>
      <point x="627" y="515" type="line" smooth="yes"/>
      <point x="630" y="590"/>
      <point x="577" y="659"/>
      <point x="476" y="659" type="curve"/>
      <point x="366" y="659"/>
      <point x="304" y="601"/>
      <point x="304" y="513" type="curve"/>
      <point x="304" y="487"/>
      <point x="314" y="456"/>
      <point x="324" y="425" type="curve"/>
      <point x="300" y="440"/>
      <point x="276" y="443"/>
      <point x="260" y="442" type="curve"/>
      <point x="168" y="436"/>
      <point x="40" y="315"/>
      <point x="40" y="196" type="curve"/>
      <point x="40" y="75"/>
      <point x="105" y="-4"/>
      <point x="211" y="-9" type="curve"/>
      <point x="273" y="-6"/>
      <point x="380" y="75"/>
      <point x="412" y="107" type="curve"/>
      <point x="393" y="128" type="line"/>
      <point x="347" y="93"/>
      <point x="302" y="67"/>
      <point x="254" y="67" type="curve"/>
      <point x="174" y="67"/>
      <point x="119" y="133"/>
      <point x="119" y="227" type="curve"/>
      <point x="119" y="281"/>
      <point x="131" y="329"/>
      <point x="172" y="366" type="curve"/>
      <point x="224" y="383"/>
      <point x="291" y="351"/>
      <point x="318" y="317" type="curve"/>
      <point x="386" y="382" type="line"/>
      <point x="359" y="414"/>
      <point x="345" y="455"/>
      <point x="345" y="505" type="curve"/>
      <point x="345" y="564"/>
      <point x="397" y="598"/>
      <point x="444" y="598" type="curve"/>
      <point x="511" y="598"/>
      <point x="549" y="552"/>
      <point x="545" y="462" type="curve"/>
      <point x="539" y="337"/>
      <point x="540" y="211"/>
      <point x="530" y="86" type="curve"/>
      <point x="526" y="37"/>
      <point x="571" y="-9"/>
      <point x="629" y="-9" type="curve"/>
      <point x="673" y="-9"/>
      <point x="727" y="33"/>
    </contour>
  </outline>
</glyph>
<glyph name="f_f" format="1">
  <advance width="605"/>
  <unicode hex="FB00"/>
  <outline>
    <contour>
      <point x="315" y="409" type="curve"/>
      <point x="141" y="409" type="line"/>
      <point x="145" y="505" type="line" smooth="yes"/>
      <point x="149" y="605"/>
      <point x="189" y="645"/>
      <point x="235" y="645" type="curve"/>
      <point x="287" y="645"/>
      <point x="313" y="621"/>
      <point x="338" y="588" type="curve"/>
      <point x="326" y="554"/>
      <point x="315" y="466"/>
    </contour>
    <contour>
      <point x="141" y="357" type="curve"/>
      <point x="315" y="357" type="line"/>
      <point x="314" y="236"/>
      <point x="312" y="121"/>
      <point x="303" y="0" type="curve"/>
      <point x="403" y="0" type="line"/>
      <point x="399" y="107"/>
      <point x="399" y="206"/>
      <point x="399" y="357" type="curve"/>
      <point x="519" y="357" type="line"/>
      <point x="528" y="408" type="line"/>
      <point x="398" y="409" type="line"/>
      <point x="398" y="475" type="line" smooth="yes"/>
      <point x="398" y="601"/>
      <point x="415" y="650"/>
      <point x="498" y="650" type="curve"/>
      <point x="535" y="650"/>
      <point x="574" y="620"/>
      <point x="580" y="582" type="curve"/>
      <point x="599" y="577" type="line"/>
      <point x="638" y="644" type="line"/>
      <point x="626" y="685"/>
      <point x="570" y="710"/>
      <point x="521" y="710" type="curve"/>
      <point x="466" y="710"/>
      <point x="423" y="682"/>
      <point x="397" y="655" type="curve"/>
      <point x="360" y="688"/>
      <point x="316" y="710"/>
      <point x="268" y="710" type="curve"/>
      <point x="185" y="710"/>
      <point x="63" y="625"/>
      <point x="63" y="474" type="curve"/>
      <point x="63" y="435"/>
      <point x="46" y="402"/>
      <point x="24" y="390" type="curve"/>
      <point x="24" y="369" type="line"/>
      <point x="36" y="362"/>
      <point x="56" y="342"/>
      <point x="56" y="315" type="curve"/>
      <point x="56" y="240"/>
      <point x="53" y="121"/>
      <point x="47" y="0" type="curve"/>
      <point x="142" y="0" type="line"/>
      <point x="137" y="92"/>
      <point x="141" y="216"/>
    </contour>
  </outline>
</glyph>
<glyph name="d_strok" format="1">
  <advance width="457"/>
  <outline>
    <contour>
      <point x="77" y="545" type="curve"/>
      <point x="71" y="514" type="line"/>
      <point x="172" y="498"/>
      <point x="281" y="485"/>
      <point x="372" y="485" type="curve"/>
      <point x="485" y="485"/>
      <point x="527" y="505"/>
      <point x="527" y="550" type="curve"/>
      <point x="527" y="595"/>
      <point x="478" y="634"/>
      <point x="442" y="650" type="curve"/>
      <point x="423" y="631" type="line"/>
      <point x="470" y="564"/>
      <point x="444" y="529"/>
      <point x="355" y="529" type="curve"/>
      <point x="266" y="529"/>
      <point x="117" y="540"/>
    </contour>
    <component base="d"/>
  </outline>
</glyph>
<glyph name="p.ss01" format="1">
  <advance width="501"/>
  <outline>
    <contour>
      <point x="142" y="-244" type="curve"/>
      <point x="142" y="-119"/>
      <point x="137" y="171"/>
      <point x="141" y="361" type="curve"/>
      <point x="143" y="441" type="line"/>
      <point x="129" y="452" type="line"/>
      <point x="89" y="443"/>
      <point x="71" y="438"/>
      <point x="39" y="430" type="curve"/>
      <point x="68" y="250"/>
      <point x="53" y="-82"/>
      <point x="48" y="-248" type="curve"/>
      <point x="48" y="-262"/>
      <point x="47" y="-263"/>
      <point x="26" y="-274" type="curve"/>
      <point x="25" y="-304" type="line"/>
      <point x="97" y="-300"/>
      <point x="164" y="-300"/>
      <point x="236" y="-304" type="curve"/>
      <point x="236" y="-274" type="line"/>
      <point x="143" y="-264"/>
      <point x="142" y="-264"/>
    </contour>
    <contour>
      <point x="127" y="109" type="curve"/>
      <point x="103" y="17" type="line"/>
      <point x="137" y="-2"/>
      <point x="188" y="-9"/>
      <point x="238" y="-9" type="curve"/>
      <point x="389" y="-9"/>
      <point x="471" y="119"/>
      <point x="471" y="235" type="curve"/>
      <point x="471" y="345"/>
      <point x="418" y="440"/>
      <point x="319" y="440" type="curve"/>
      <point x="267" y="440"/>
      <point x="169" y="391"/>
      <point x="103" y="372" type="curve"/>
      <point x="111" y="336" type="line"/>
      <point x="137" y="352"/>
      <point x="190" y="370"/>
      <point x="238" y="370" type="curve"/>
      <point x="307" y="370"/>
      <point x="390" y="303"/>
      <point x="390" y="186" type="curve"/>
      <point x="390" y="114"/>
      <point x="357" y="40"/>
      <point x="266" y="40" type="curve"/>
      <point x="190" y="40"/>
      <point x="160" y="71"/>
    </contour>
  </outline>
</glyph>
<glyph name="q_bardes_ra" format="1">
  <advance width="513"/>
  <outline>
    <contour>
      <point x="443" y="123" type="curve"/>
      <point x="422" y="160" type="line"/>
      <point x="405" y="106"/>
      <point x="332" y="56"/>
      <point x="269" y="56" type="curve"/>
      <point x="177" y="56"/>
      <point x="116" y="122"/>
      <point x="116" y="230" type="curve"/>
      <point x="116" y="326"/>
      <point x="171" y="392"/>
      <point x="275" y="392" type="curve"/>
      <point x="357" y="392"/>
      <point x="407" y="336"/>
      <point x="408" y="234" type="curve"/>
      <point x="410" y="129" type="line"/>
      <point x="410" y="113" type="line" smooth="yes"/>
      <point x="412" y="-89"/>
      <point x="408" y="-201"/>
      <point x="406" y="-225" type="curve"/>
      <point x="403" y="-256"/>
      <point x="401" y="-264"/>
      <point x="354" y="-268" type="curve"/>
      <point x="354" y="-303" type="line"/>
      <point x="396" y="-300"/>
      <point x="495" y="-299"/>
      <point x="557" y="-303" type="curve"/>
      <point x="557" y="-268" type="line"/>
      <point x="510" y="-262"/>
      <point x="507" y="-261"/>
      <point x="504" y="-213" type="curve"/>
      <point x="499" y="-122"/>
      <point x="495" y="62"/>
      <point x="497" y="244" type="curve"/>
      <point x="498" y="363"/>
      <point x="510" y="383"/>
      <point x="522" y="430" type="curve"/>
      <point x="514" y="440" type="line"/>
      <point x="488" y="434"/>
      <point x="467" y="432"/>
      <point x="437" y="432" type="curve"/>
      <point x="391" y="432"/>
      <point x="328" y="441"/>
      <point x="266" y="441" type="curve"/>
      <point x="136" y="441"/>
      <point x="30" y="347"/>
      <point x="30" y="197" type="curve"/>
      <point x="30" y="97"/>
      <point x="83" y="-10"/>
      <point x="213" y="-10" type="curve"/>
      <point x="342" y="-10"/>
      <point x="392" y="69"/>
    </contour>
    <contour>
      <point x="214" y="636" type="curve"/>
      <point x="196" y="641" type="line"/>
      <point x="185" y="607"/>
      <point x="167" y="582"/>
      <point x="168" y="566" type="curve"/>
      <point x="171" y="541"/>
      <point x="198" y="503"/>
      <point x="241" y="503" type="curve"/>
      <point x="283" y="503"/>
      <point x="312" y="533"/>
      <point x="367" y="581" type="curve"/>
      <point x="317" y="565" type="line"/>
      <point x="331" y="546"/>
      <point x="355" y="502"/>
      <point x="413" y="502" type="curve"/>
      <point x="470" y="502"/>
      <point x="517" y="583"/>
      <point x="515" y="669" type="curve"/>
      <point x="490" y="665" type="line"/>
      <point x="486" y="602"/>
      <point x="467" y="573"/>
      <point x="424" y="573" type="curve"/>
      <point x="395" y="573"/>
      <point x="362" y="596"/>
      <point x="377" y="656" type="curve"/>
      <point x="352" y="662" type="line"/>
      <point x="348" y="606"/>
      <point x="320" y="565"/>
      <point x="279" y="565" type="curve"/>
      <point x="240" y="565"/>
      <point x="214" y="598"/>
    </contour>
    <contour>
      <point x="553" y="-181" type="curve"/>
      <point x="540" y="-125" type="line"/>
      <point x="441" y="-147"/>
      <point x="342" y="-174"/>
      <point x="226" y="-247" type="curve"/>
      <point x="231" y="-260" type="line"/>
      <point x="350" y="-204"/>
      <point x="451" y="-192"/>
    </contour>
  </outline>
</glyph>
<glyph name="s.ss01" format="1">
  <advance width="392"/>
  <outline>
    <contour>
      <point x="369" y="127" type="curve"/>
      <point x="369" y="47"/>
      <point x="289" y="-10"/>
      <point x="199" y="-10" type="curve"/>
      <point x="109" y="-10"/>
      <point x="58" y="16"/>
      <point x="29" y="24" type="curve"/>
      <point x="43" y="127" type="line"/>
      <point x="70" y="127" type="line"/>
      <point x="73" y="70"/>
      <point x="154" y="30"/>
      <point x="200" y="30" type="curve"/>
      <point x="248" y="30"/>
      <point x="281" y="52"/>
      <point x="281" y="92" type="curve"/>
      <point x="281" y="142"/>
      <point x="227" y="159"/>
      <point x="156" y="184" type="curve"/>
      <point x="58" y="219"/>
      <point x="20" y="242"/>
      <point x="20" y="287" type="curve"/>
      <point x="20" y="325"/>
      <point x="33" y="342"/>
      <point x="48" y="361" type="curve"/>
      <point x="71" y="382"/>
      <point x="149" y="426"/>
      <point x="183" y="440" type="curve"/>
      <point x="239" y="431"/>
      <point x="280" y="412"/>
      <point x="310" y="397" type="curve"/>
      <point x="336" y="384"/>
      <point x="347" y="383"/>
      <point x="369" y="384" type="curve"/>
      <point x="372" y="364" type="line"/>
      <point x="292" y="297" type="line"/>
      <point x="262" y="339"/>
      <point x="209" y="366"/>
      <point x="161" y="366" type="curve"/>
      <point x="121" y="366"/>
      <point x="94" y="357"/>
      <point x="94" y="326" type="curve"/>
      <point x="94" y="299"/>
      <point x="117" y="281"/>
      <point x="199" y="257" type="curve"/>
      <point x="307" y="226"/>
      <point x="369" y="206"/>
    </contour>
  </outline>
</glyph>
